<svg width="17" height="16" viewBox="0 0 17 16" fill="none" xmlns="http://www.w3.org/2000/svg">
<path d="M15.4112 15.212L9.92301 9.90677C9.48743 10.2436 8.98653 10.5103 8.42028 10.7068C7.85404 10.9033 7.2515 11.0015 6.61266 11.0015C5.03008 11.0015 3.6907 10.4717 2.59451 9.41203C1.49832 8.35239 0.950226 7.05765 0.950226 5.52782C0.950226 3.998 1.49832 2.70326 2.59451 1.64361C3.6907 0.583963 5.03008 0.0541382 6.61266 0.0541382C8.19524 0.0541382 9.53462 0.583963 10.6308 1.64361C11.727 2.70326 12.2751 3.998 12.2751 5.52782C12.2751 6.14537 12.1735 6.72782 11.9702 7.27519C11.7669 7.82256 11.4911 8.30677 11.1426 8.72782L16.6308 14.0331L15.4112 15.212ZM6.61266 9.3173C7.70159 9.3173 8.62718 8.94888 9.38943 8.21204C10.1517 7.47519 10.5328 6.58046 10.5328 5.52782C10.5328 4.47519 10.1517 3.58045 9.38943 2.84361C8.62718 2.10677 7.70159 1.73835 6.61266 1.73835C5.52373 1.73835 4.59814 2.10677 3.83589 2.84361C3.07364 3.58045 2.69251 4.47519 2.69251 5.52782C2.69251 6.58046 3.07364 7.47519 3.83589 8.21204C4.59814 8.94888 5.52373 9.3173 6.61266 9.3173Z" fill="#391E5A"/>
</svg>
